Genre:Drama
Language:English  http://www.imdb.com/title/tt0935075/
Source:mf34inc/T0XiC-iNK Thx.


Format : MPEG-4
Format profile : Base Media
Codec ID : isom
File size : 1.05 GiB
Duration : 1h 31mn
Overall bit rate : 1 641 Kbps
Movie name : Rabbit Hole 2010 WEBSCR x264 Feel-Free

Video
Format settings, CABAC : Yes
Format settings, ReFrames : 4 frames
Codec ID : avc1
Codec ID/Info : Advanced Video Coding
Duration : 1h 31mn
Bit rate mode : Variable
Bit rate : 1 267 Kbps
Width : 720 pixels
Height : 384 pixels
Display aspect ratio : 1.875
Frame rate mode : Constant
Frame rate : 23.976 fps
Color space : YUV
Chroma subsampling : 4:2:0
Bit depth : 8 bits
Scan type : Progressive
Bits/(Pixel*Frame) : 0.191
Stream size : 819 MiB (76%)
Writing library : x264

Audio
ID : 2
Format : AAC
Format/Info : Advanced Audio Codec
Format version : Version 4
Format profile : LC
Codec ID : 40
Duration : 1h 31mn
Bit rate mode : Variable
Bit rate : 384 Kbps
Channel(s) : 6 channels
Channel positions : Front: L C R, Side: L R, LFE
Sampling rate : 48.0 KHz
Stream size : 251 MiB (23%)



Plot:
Life for a happy couple is turned upside down after their young son dies in an accident. Based on a play by David Lindsay-Abaire
 
http://rapidhdd.com/images/589986vlcsnap-00001.png 
http://www.rapidhdd.com/images/850492vlcsnap-00002.png 
http://www.rapidhdd.com/images/206739vlcsnap-00006.png 
http://www.rapidhdd.com/images/369821vlcsnap-00005.png 
http://www.rapidhdd.com/images/710130vlcsnap-00004.png